<?xml version="1.0" standalone="no"?>
<!DOCTYPE svg PUBLIC "-//W3C//DTD SVG 20010904//EN"
 "http://www.w3.org/TR/2001/REC-SVG-20010904/DTD/svg10.dtd">
<svg version="1.0" xmlns="http://www.w3.org/2000/svg"
 width="512.000000pt" height="512.000000pt" viewBox="0 0 512.000000 512.000000"
 preserveAspectRatio="xMidYMid meet">
<metadata>
Created by potrace 1.11, written by Peter Selinger 2001-2013
</metadata>
<g transform="translate(0.000000,512.000000) scale(0.100000,-0.100000)"
fill="#000000" stroke="none">
<path d="M845 5106 c-42 -19 -75 -53 -92 -95 -12 -29 -15 -89 -16 -308 0 -192
-3 -273 -11 -274 -6 -1 -99 -2 -206 -4 -175 -2 -201 -5 -254 -25 -103 -40
-186 -136 -211 -244 -18 -81 -14 -2727 4 -2781 29 -83 63 -129 131 -180 91
-67 66 -65 957 -65 l804 0 -5 -37 c-3 -21 -8 -65 -11 -98 -4 -33 -8 -71 -10
-85 -2 -14 -7 -52 -10 -85 -3 -33 -8 -71 -10 -85 -4 -25 -9 -59 -20 -155 -3
-27 -8 -59 -10 -70 -2 -11 -4 -34 -4 -51 l-1 -31 -82 0 c-46 -1 -93 -2 -105
-2 -12 -1 -34 -11 -49 -24 -25 -22 -27 -28 -29 -123 -1 -54 -3 -102 -4 -105 0
-3 -47 -6 -103 -6 -174 -1 -154 10 -153 -88 l0 -85 1215 2 1215 3 0 72 c1 40
-2 78 -6 85 -5 8 -47 12 -131 12 l-123 1 -1 97 c-1 147 -19 164 -178 162 l-84
0 -6 67 c-4 37 -9 78 -11 91 -2 13 -9 65 -15 117 -7 52 -13 104 -15 115 -1 12
-6 50 -9 86 -10 85 -13 115 -21 173 l-7 47 803 1 c442 0 811 2 819 4 8 2 25 6
38 9 52 11 127 63 169 116 83 106 76 -23 80 1506 2 1242 1 1366 -14 1410 -37
110 -109 187 -213 229 -37 15 -80 18 -245 20 -110 2 -204 3 -210 4 -6 1 -11
101 -12 276 -1 256 -2 278 -22 317 -11 24 -37 54 -58 68 l-37 25 -1695 2
c-1402 2 -1701 0 -1726 -11z"/>
</g>
</svg>
